<mxfile host="" modified="2021-02-22T06:07:57.842Z" agent="5.0 (Macintosh; Intel Mac OS X 10_15_7) AppleWebKit/537.36 (KHTML, like Gecko) Chrome/84.0.4147.105 Safari/537.36" version="13.7.9" etag="B-paL5AaKeeTQaNkmT6l" type="embed"><diagram id="NkOT9oDAIiKGMAlGCQh5" name="Page-1"><mxGraphModel dx="1423" dy="1128" grid="1" gridSize="10" guides="1" tooltips="1" connect="1" arrows="1" fold="1" page="1" pageScale="1" pageWidth="850" pageHeight="1100" math="0" shadow="0"><root><mxCell id="0"/><mxCell id="1" parent="0"/><mxCell id="2" value="Client" style="html=1;" vertex="1" parent="1"><mxGeometry x="40" y="160" width="120" height="50" as="geometry"/></mxCell><mxCell id="16" value="&lt;br&gt;&amp;nbsp;receiver -&amp;gt; Action();" style="shape=note;whiteSpace=wrap;html=1;size=14;verticalAlign=top;align=left;spacingTop=-6;" vertex="1" parent="1"><mxGeometry x="470" y="391" width="120" height="40" as="geometry"/></mxCell><mxCell id="18" value="Invoker" style="swimlane;fontStyle=1;align=center;verticalAlign=top;childLayout=stackLayout;horizontal=1;startSize=26;horizontalStack=0;resizeParent=1;resizeParentMax=0;resizeLast=0;collapsible=1;marginBottom=0;" vertex="1" parent="1"><mxGeometry x="280" y="140" width="160" height="100" as="geometry"/></mxCell><mxCell id="19" value="- command" style="text;strokeColor=none;fillColor=none;align=left;verticalAlign=top;spacingLeft=4;spacingRight=4;overflow=hidden;rotatable=0;points=[[0,0.5],[1,0.5]];portConstraint=eastwest;" vertex="1" parent="18"><mxGeometry y="26" width="160" height="26" as="geometry"/></mxCell><mxCell id="20" value="" style="line;strokeWidth=1;fillColor=none;align=left;verticalAlign=middle;spacingTop=-1;spacingLeft=3;spacingRight=3;rotatable=0;labelPosition=right;points=[];portConstraint=eastwest;" vertex="1" parent="18"><mxGeometry y="52" width="160" height="8" as="geometry"/></mxCell><mxCell id="21" value="+ setCommand(command)&#10;+executeCommand()" style="text;strokeColor=none;fillColor=none;align=left;verticalAlign=top;spacingLeft=4;spacingRight=4;overflow=hidden;rotatable=0;points=[[0,0.5],[1,0.5]];portConstraint=eastwest;" vertex="1" parent="18"><mxGeometry y="60" width="160" height="40" as="geometry"/></mxCell><mxCell id="22" value="&lt;p style=&quot;margin: 0px ; margin-top: 4px ; text-align: center&quot;&gt;&lt;i&gt;&amp;lt;&amp;lt;Interface&amp;gt;&amp;gt;&lt;/i&gt;&lt;br&gt;Command&lt;br&gt;&lt;/p&gt;&lt;hr size=&quot;1&quot;&gt;&lt;p style=&quot;margin: 0px ; margin-left: 4px&quot;&gt;+ execute()&lt;br&gt;&lt;/p&gt;&lt;p style=&quot;margin: 0px ; margin-left: 4px&quot;&gt;&lt;br&gt;&lt;/p&gt;" style="verticalAlign=top;align=left;overflow=fill;fontSize=12;fontFamily=Helvetica;html=1;" vertex="1" parent="1"><mxGeometry x="560" y="140" width="120" height="80" as="geometry"/></mxCell><mxCell id="23" value="" style="endArrow=none;dashed=1;html=1;dashPattern=1 3;strokeWidth=2;entryX=1;entryY=0.5;entryDx=0;entryDy=0;" edge="1" parent="1" source="16" target="15"><mxGeometry width="50" height="50" relative="1" as="geometry"><mxPoint x="180" y="600" as="sourcePoint"/><mxPoint x="230" y="550" as="targetPoint"/></mxGeometry></mxCell><mxCell id="24" value="" style="endArrow=classic;html=1;exitX=0.7;exitY=1.04;exitDx=0;exitDy=0;exitPerimeter=0;entryX=0;entryY=0;entryDx=0;entryDy=0;" edge="1" parent="1" source="2" target="12"><mxGeometry width="50" height="50" relative="1" as="geometry"><mxPoint x="160" y="440" as="sourcePoint"/><mxPoint x="280" y="440" as="targetPoint"/></mxGeometry></mxCell><mxCell id="25" value="" style="endArrow=classic;html=1;" edge="1" parent="1"><mxGeometry width="50" height="50" relative="1" as="geometry"><mxPoint x="160" y="184.5" as="sourcePoint"/><mxPoint x="280" y="184.5" as="targetPoint"/></mxGeometry></mxCell><mxCell id="26" value="" style="endArrow=classic;html=1;entryX=0.25;entryY=0;entryDx=0;entryDy=0;" edge="1" parent="1" target="10"><mxGeometry width="50" height="50" relative="1" as="geometry"><mxPoint x="70" y="213" as="sourcePoint"/><mxPoint x="240" y="270" as="targetPoint"/></mxGeometry></mxCell><mxCell id="10" value="Receiver" style="swimlane;fontStyle=0;childLayout=stackLayout;horizontal=1;startSize=26;fillColor=none;horizontalStack=0;resizeParent=1;resizeParentMax=0;resizeLast=0;collapsible=1;marginBottom=0;" vertex="1" parent="1"><mxGeometry x="40" y="320" width="120" height="52" as="geometry"/></mxCell><mxCell id="11" value="operation(a, b, c)" style="text;strokeColor=none;fillColor=none;align=left;verticalAlign=top;spacingLeft=4;spacingRight=4;overflow=hidden;rotatable=0;points=[[0,0.5],[1,0.5]];portConstraint=eastwest;" vertex="1" parent="10"><mxGeometry y="26" width="120" height="26" as="geometry"/></mxCell><mxCell id="12" value="Command1" style="swimlane;fontStyle=1;align=center;verticalAlign=top;childLayout=stackLayout;horizontal=1;startSize=26;horizontalStack=0;resizeParent=1;resizeParentMax=0;resizeLast=0;collapsible=1;marginBottom=0;" vertex="1" parent="1"><mxGeometry x="280" y="320" width="170" height="120" as="geometry"/></mxCell><mxCell id="13" value="- receiver&#10;- param" style="text;strokeColor=none;fillColor=none;align=left;verticalAlign=top;spacingLeft=4;spacingRight=4;overflow=hidden;rotatable=0;points=[[0,0.5],[1,0.5]];portConstraint=eastwest;" vertex="1" parent="12"><mxGeometry y="26" width="170" height="44" as="geometry"/></mxCell><mxCell id="14" value="" style="line;strokeWidth=1;fillColor=none;align=left;verticalAlign=middle;spacingTop=-1;spacingLeft=3;spacingRight=3;rotatable=0;labelPosition=right;points=[];portConstraint=eastwest;" vertex="1" parent="12"><mxGeometry y="70" width="170" height="8" as="geometry"/></mxCell><mxCell id="15" value="+ Command1(receiver, param)&#10;+ execute()" style="text;strokeColor=none;fillColor=none;align=left;verticalAlign=top;spacingLeft=4;spacingRight=4;overflow=hidden;rotatable=0;points=[[0,0.5],[1,0.5]];portConstraint=eastwest;" vertex="1" parent="12"><mxGeometry y="78" width="170" height="42" as="geometry"/></mxCell><mxCell id="27" value="" style="endArrow=open;html=1;endSize=12;startArrow=diamondThin;startSize=14;startFill=0;edgeStyle=orthogonalEdgeStyle;align=left;verticalAlign=bottom;" edge="1" parent="1"><mxGeometry x="-1" y="3" relative="1" as="geometry"><mxPoint x="440" y="184.5" as="sourcePoint"/><mxPoint x="560" y="184.5" as="targetPoint"/></mxGeometry></mxCell><mxCell id="30" value="" style="endArrow=block;dashed=1;html=1;dashPattern=1 3;strokeWidth=2;endFill=0;exitX=0.5;exitY=0;exitDx=0;exitDy=0;" edge="1" parent="1" source="32"><mxGeometry width="50" height="50" relative="1" as="geometry"><mxPoint x="350" y="530" as="sourcePoint"/><mxPoint x="620" y="230" as="targetPoint"/><Array as="points"><mxPoint x="720" y="280"/><mxPoint x="620" y="280"/></Array></mxGeometry></mxCell><mxCell id="31" value="" style="endArrow=block;dashed=1;html=1;dashPattern=1 3;strokeWidth=2;endFill=0;exitX=0.5;exitY=0;exitDx=0;exitDy=0;entryX=0.5;entryY=1;entryDx=0;entryDy=0;" edge="1" parent="1" source="12" target="22"><mxGeometry width="50" height="50" relative="1" as="geometry"><mxPoint x="490" y="530" as="sourcePoint"/><mxPoint x="540" y="480" as="targetPoint"/><Array as="points"><mxPoint x="360" y="280"/><mxPoint x="620" y="280"/></Array></mxGeometry></mxCell><mxCell id="32" value="Command2" style="swimlane;fontStyle=0;childLayout=stackLayout;horizontal=1;startSize=26;fillColor=none;horizontalStack=0;resizeParent=1;resizeParentMax=0;resizeLast=0;collapsible=1;marginBottom=0;" vertex="1" parent="1"><mxGeometry x="660" y="320" width="120" height="52" as="geometry"/></mxCell><mxCell id="33" value="+ execute()" style="text;strokeColor=none;fillColor=none;align=left;verticalAlign=top;spacingLeft=4;spacingRight=4;overflow=hidden;rotatable=0;points=[[0,0.5],[1,0.5]];portConstraint=eastwest;" vertex="1" parent="32"><mxGeometry y="26" width="120" height="26" as="geometry"/></mxCell></root></mxGraphModel></diagram></mxfile>